<mxfile host="app.diagrams.net" modified="2024-01-16T14:02:40.975Z" agent="Mozilla/5.0 (Windows NT 10.0; Win64; x64) AppleWebKit/537.36 (KHTML, like Gecko) Chrome/120.0.0.0 Safari/537.36" etag="5_dcz1W0ecpS-uceR93i" version="22.1.18" type="github">
  <diagram name="第 1 页" id="eq8SUNMDuEyKieKmPVXI">
    <mxGraphModel dx="1922" dy="1033" grid="1" gridSize="10" guides="0" tooltips="1" connect="0" arrows="0" fold="1" page="1" pageScale="1" pageWidth="827" pageHeight="1169" math="0" shadow="0">
      <root>
        <mxCell id="0" />
        <mxCell id="1" parent="0" />
        <mxCell id="s6vL8tzU-uewyDVNYMGd-20" value="" style="shape=cube;whiteSpace=wrap;html=1;boundedLbl=1;backgroundOutline=1;darkOpacity=0.05;darkOpacity2=0.1;fillColor=#f8cecc;strokeColor=#b85450;" vertex="1" parent="1">
          <mxGeometry x="240" y="545" width="80" height="40" as="geometry" />
        </mxCell>
        <mxCell id="s6vL8tzU-uewyDVNYMGd-22" value="" style="shape=cube;whiteSpace=wrap;html=1;boundedLbl=1;backgroundOutline=1;darkOpacity=0.05;darkOpacity2=0.1;fillColor=#dae8fc;strokeColor=#6c8ebf;" vertex="1" parent="1">
          <mxGeometry x="240" y="510" width="80" height="40" as="geometry" />
        </mxCell>
        <mxCell id="s6vL8tzU-uewyDVNYMGd-23" value="" style="shape=cube;whiteSpace=wrap;html=1;boundedLbl=1;backgroundOutline=1;darkOpacity=0.05;darkOpacity2=0.1;fillColor=#d5e8d4;strokeColor=#82b366;" vertex="1" parent="1">
          <mxGeometry x="240" y="480" width="80" height="40" as="geometry" />
        </mxCell>
        <mxCell id="s6vL8tzU-uewyDVNYMGd-25" value="" style="shape=cube;whiteSpace=wrap;html=1;boundedLbl=1;backgroundOutline=1;darkOpacity=0.05;darkOpacity2=0.1;fillColor=#fff2cc;strokeColor=#d6b656;" vertex="1" parent="1">
          <mxGeometry x="240" y="440" width="80" height="40" as="geometry" />
        </mxCell>
        <mxCell id="s6vL8tzU-uewyDVNYMGd-39" value="" style="shape=cube;whiteSpace=wrap;html=1;boundedLbl=1;backgroundOutline=1;darkOpacity=0.05;darkOpacity2=0.1;fillColor=#f8cecc;strokeColor=#b85450;" vertex="1" parent="1">
          <mxGeometry x="396" y="490" width="26" height="65" as="geometry" />
        </mxCell>
        <mxCell id="s6vL8tzU-uewyDVNYMGd-57" value="" style="shape=cube;whiteSpace=wrap;html=1;boundedLbl=1;backgroundOutline=1;darkOpacity=0.05;darkOpacity2=0.1;fillColor=#dae8fc;strokeColor=#6c8ebf;" vertex="1" parent="1">
          <mxGeometry x="388" y="490" width="26" height="65" as="geometry" />
        </mxCell>
        <mxCell id="s6vL8tzU-uewyDVNYMGd-58" value="" style="shape=cube;whiteSpace=wrap;html=1;boundedLbl=1;backgroundOutline=1;darkOpacity=0.05;darkOpacity2=0.1;fillColor=#d5e8d4;strokeColor=#82b366;" vertex="1" parent="1">
          <mxGeometry x="380" y="490" width="26" height="65" as="geometry" />
        </mxCell>
        <mxCell id="s6vL8tzU-uewyDVNYMGd-60" value="" style="shape=cube;whiteSpace=wrap;html=1;boundedLbl=1;backgroundOutline=1;darkOpacity=0.05;darkOpacity2=0.1;fillColor=#fff2cc;strokeColor=#d6b656;" vertex="1" parent="1">
          <mxGeometry x="370" y="490" width="26" height="65" as="geometry" />
        </mxCell>
        <mxCell id="s6vL8tzU-uewyDVNYMGd-62" style="edgeStyle=orthogonalEdgeStyle;rounded=0;orthogonalLoop=1;jettySize=auto;html=1;exitX=0;exitY=0;exitDx=80;exitDy=30;exitPerimeter=0;entryX=0;entryY=0;entryDx=0;entryDy=22.5;entryPerimeter=0;endArrow=openThin;endFill=0;" edge="1" parent="1" source="s6vL8tzU-uewyDVNYMGd-20" target="s6vL8tzU-uewyDVNYMGd-60">
          <mxGeometry relative="1" as="geometry" />
        </mxCell>
        <mxCell id="s6vL8tzU-uewyDVNYMGd-63" style="edgeStyle=orthogonalEdgeStyle;rounded=0;orthogonalLoop=1;jettySize=auto;html=1;exitX=0;exitY=0;exitDx=80;exitDy=30;exitPerimeter=0;entryX=0;entryY=0;entryDx=0;entryDy=22.5;entryPerimeter=0;endArrow=openThin;endFill=0;" edge="1" parent="1" source="s6vL8tzU-uewyDVNYMGd-23" target="s6vL8tzU-uewyDVNYMGd-60">
          <mxGeometry relative="1" as="geometry" />
        </mxCell>
        <mxCell id="s6vL8tzU-uewyDVNYMGd-64" style="edgeStyle=orthogonalEdgeStyle;rounded=0;orthogonalLoop=1;jettySize=auto;html=1;exitX=0;exitY=0;exitDx=80;exitDy=30;exitPerimeter=0;entryX=0;entryY=0;entryDx=0;entryDy=22.5;entryPerimeter=0;endArrow=openThin;endFill=0;" edge="1" parent="1" source="s6vL8tzU-uewyDVNYMGd-22" target="s6vL8tzU-uewyDVNYMGd-60">
          <mxGeometry relative="1" as="geometry" />
        </mxCell>
        <mxCell id="s6vL8tzU-uewyDVNYMGd-65" value="" style="shape=cube;whiteSpace=wrap;html=1;boundedLbl=1;backgroundOutline=1;darkOpacity=0.05;darkOpacity2=0.1;" vertex="1" parent="1">
          <mxGeometry x="40" y="480" width="120" height="90" as="geometry" />
        </mxCell>
        <mxCell id="s6vL8tzU-uewyDVNYMGd-73" style="edgeStyle=orthogonalEdgeStyle;rounded=0;orthogonalLoop=1;jettySize=auto;html=1;exitX=0;exitY=0;exitDx=80;exitDy=20;exitPerimeter=0;entryX=0;entryY=0;entryDx=0;entryDy=22.5;entryPerimeter=0;endArrow=classicThin;endFill=1;" edge="1" parent="1" source="s6vL8tzU-uewyDVNYMGd-25" target="s6vL8tzU-uewyDVNYMGd-60">
          <mxGeometry relative="1" as="geometry" />
        </mxCell>
        <mxCell id="s6vL8tzU-uewyDVNYMGd-74" style="edgeStyle=orthogonalEdgeStyle;rounded=0;orthogonalLoop=1;jettySize=auto;html=1;exitX=0;exitY=0;exitDx=120;exitDy=55;exitPerimeter=0;entryX=0;entryY=0;entryDx=0;entryDy=20;entryPerimeter=0;endArrow=openThin;endFill=0;" edge="1" parent="1" source="s6vL8tzU-uewyDVNYMGd-65" target="s6vL8tzU-uewyDVNYMGd-25">
          <mxGeometry relative="1" as="geometry" />
        </mxCell>
        <mxCell id="s6vL8tzU-uewyDVNYMGd-75" style="edgeStyle=orthogonalEdgeStyle;rounded=0;orthogonalLoop=1;jettySize=auto;html=1;exitX=0;exitY=0;exitDx=120;exitDy=55;exitPerimeter=0;entryX=0;entryY=0;entryDx=0;entryDy=20;entryPerimeter=0;endArrow=openThin;endFill=0;" edge="1" parent="1" source="s6vL8tzU-uewyDVNYMGd-65" target="s6vL8tzU-uewyDVNYMGd-23">
          <mxGeometry relative="1" as="geometry" />
        </mxCell>
        <mxCell id="s6vL8tzU-uewyDVNYMGd-76" style="edgeStyle=orthogonalEdgeStyle;rounded=0;orthogonalLoop=1;jettySize=auto;html=1;exitX=0;exitY=0;exitDx=120;exitDy=55;exitPerimeter=0;entryX=0;entryY=0;entryDx=0;entryDy=20;entryPerimeter=0;endArrow=openThin;endFill=0;" edge="1" parent="1" source="s6vL8tzU-uewyDVNYMGd-65" target="s6vL8tzU-uewyDVNYMGd-22">
          <mxGeometry relative="1" as="geometry" />
        </mxCell>
        <mxCell id="s6vL8tzU-uewyDVNYMGd-77" style="edgeStyle=orthogonalEdgeStyle;rounded=0;orthogonalLoop=1;jettySize=auto;html=1;exitX=0;exitY=0;exitDx=120;exitDy=55;exitPerimeter=0;entryX=0;entryY=0;entryDx=0;entryDy=20;entryPerimeter=0;endArrow=openThin;endFill=0;" edge="1" parent="1" source="s6vL8tzU-uewyDVNYMGd-65" target="s6vL8tzU-uewyDVNYMGd-20">
          <mxGeometry relative="1" as="geometry" />
        </mxCell>
        <mxCell id="s6vL8tzU-uewyDVNYMGd-80" value="" style="shape=cube;whiteSpace=wrap;html=1;boundedLbl=1;backgroundOutline=1;darkOpacity=0.05;darkOpacity2=0.1;fontStyle=1;fillColor=#dae8fc;strokeColor=#6c8ebf;gradientColor=#7ea6e0;" vertex="1" parent="1">
          <mxGeometry x="362" y="610" width="48" height="40" as="geometry" />
        </mxCell>
        <mxCell id="s6vL8tzU-uewyDVNYMGd-81" value="" style="shape=cube;whiteSpace=wrap;html=1;boundedLbl=1;backgroundOutline=1;darkOpacity=0.05;darkOpacity2=0.1;fillColor=#d5e8d4;strokeColor=#82b366;gradientColor=#97d077;" vertex="1" parent="1">
          <mxGeometry x="344" y="610" width="44" height="40" as="geometry" />
        </mxCell>
        <mxCell id="s6vL8tzU-uewyDVNYMGd-82" value="" style="shape=cube;whiteSpace=wrap;html=1;boundedLbl=1;backgroundOutline=1;darkOpacity=0.05;darkOpacity2=0.1;fillColor=#f8cecc;strokeColor=#b85450;gradientColor=#ea6b66;" vertex="1" parent="1">
          <mxGeometry x="320" y="610" width="44" height="40" as="geometry" />
        </mxCell>
        <mxCell id="s6vL8tzU-uewyDVNYMGd-83" style="edgeStyle=orthogonalEdgeStyle;rounded=0;orthogonalLoop=1;jettySize=auto;html=1;exitX=0;exitY=0;exitDx=120;exitDy=55;exitPerimeter=0;entryX=0;entryY=0;entryDx=0;entryDy=10;entryPerimeter=0;endArrow=openThin;endFill=0;" edge="1" parent="1" source="s6vL8tzU-uewyDVNYMGd-65" target="s6vL8tzU-uewyDVNYMGd-82">
          <mxGeometry relative="1" as="geometry">
            <Array as="points">
              <mxPoint x="200" y="535" />
              <mxPoint x="200" y="620" />
            </Array>
          </mxGeometry>
        </mxCell>
        <mxCell id="s6vL8tzU-uewyDVNYMGd-86" value="" style="shape=sumEllipse;perimeter=ellipsePerimeter;whiteSpace=wrap;html=1;backgroundOutline=1;" vertex="1" parent="1">
          <mxGeometry x="540" y="510" width="30" height="30" as="geometry" />
        </mxCell>
        <mxCell id="s6vL8tzU-uewyDVNYMGd-87" value="" style="shape=cube;whiteSpace=wrap;html=1;boundedLbl=1;backgroundOutline=1;darkOpacity=0.05;darkOpacity2=0.1;" vertex="1" parent="1">
          <mxGeometry x="670" y="480" width="110" height="80" as="geometry" />
        </mxCell>
        <mxCell id="s6vL8tzU-uewyDVNYMGd-88" value="" style="shape=cube;whiteSpace=wrap;html=1;boundedLbl=1;backgroundOutline=1;darkOpacity=0.05;darkOpacity2=0.1;fillColor=#e1d5e7;strokeColor=#9673a6;" vertex="1" parent="1">
          <mxGeometry x="480" y="480" width="30" height="80" as="geometry" />
        </mxCell>
        <mxCell id="s6vL8tzU-uewyDVNYMGd-89" value="" style="shape=cube;whiteSpace=wrap;html=1;boundedLbl=1;backgroundOutline=1;darkOpacity=0.05;darkOpacity2=0.1;fillColor=#e1d5e7;strokeColor=#9673a6;" vertex="1" parent="1">
          <mxGeometry x="470" y="480" width="30" height="80" as="geometry" />
        </mxCell>
      </root>
    </mxGraphModel>
  </diagram>
</mxfile>
